<svg xmlns="http://www.w3.org/2000/svg" viewBox="0 0 1200 900"><rect width="1200" height="900" fill="#fbf3ef"/><circle cx="945" cy="171" r="174" fill="#153f3c"/><path d="M115 683c169-140 317-192 444-156 127 35 221 139 387 104 60-12 116-39 166-77v346H115z" fill="#f1cabd"/><g transform="translate(474 156)"><path d="M115 80c44 24 70 80 63 156l-28 296H36L8 236C0 160 27 104 70 80c12 22 26 34 45 34 20 0 34-12 45-34z" fill="#fffdf9"/><path d="M47 280h93" stroke="#c89384" stroke-width="13" stroke-linecap="round"/></g></svg>
