<svg xmlns="http://www.w3.org/2000/svg" viewBox="0 0 1600 1000" role="img" aria-labelledby="title desc">
  <title id="title">Plava boutique editorial collection</title>
  <desc id="desc">A styled boutique scene with floating fabric forms and curated womenswear silhouettes.</desc>
  <defs>
    <linearGradient id="bg" x1="0" x2="1" y1="0" y2="1">
      <stop offset="0" stop-color="#f8ece7"/>
      <stop offset=".45" stop-color="#e9f3f1"/>
      <stop offset="1" stop-color="#171717"/>
    </linearGradient>
    <radialGradient id="light" cx=".33" cy=".28" r=".72">
      <stop offset="0" stop-color="#fff9f3"/>
      <stop offset=".55" stop-color="#e6c3b5" stop-opacity=".75"/>
      <stop offset="1" stop-color="#1a1a1a" stop-opacity="0"/>
    </radialGradient>
    <filter id="soft" x="-15%" y="-15%" width="130%" height="130%">
      <feGaussianBlur stdDeviation="18"/>
    </filter>
  </defs>
  <rect width="1600" height="1000" fill="url(#bg)"/>
  <circle cx="520" cy="320" r="470" fill="url(#light)"/>
  <ellipse cx="1010" cy="780" rx="460" ry="70" fill="#111" opacity=".23" filter="url(#soft)"/>
  <path d="M540 165c170 15 246 97 272 192 31 116-14 249 52 342 48 69 149 89 257 53 126-42 214-144 271-257" fill="none" stroke="#f4d4c8" stroke-width="84" stroke-linecap="round" opacity=".9"/>
  <path d="M295 666c144-91 274-106 386-44 103 58 181 176 314 176 115 0 229-88 342-263" fill="none" stroke="#143f3d" stroke-width="48" stroke-linecap="round" opacity=".85"/>
  <g transform="translate(756 214)">
    <path d="M143 101c58 30 92 103 83 202l-37 386H37L0 303c-10-99 25-172 83-202 17 29 35 44 60 44s44-15 60-44z" fill="#f9efe9"/>
    <path d="M89 120c12 26 27 38 54 38 27 0 42-12 54-38" fill="none" stroke="#1f1f1f" stroke-width="12" stroke-linecap="round"/>
    <path d="M31 348h223" stroke="#d4a99a" stroke-width="11" stroke-linecap="round"/>
    <path d="M55 694h178" stroke="#1f1f1f" stroke-width="13" stroke-linecap="round"/>
  </g>
  <g fill="#fffaf7" opacity=".86">
    <circle cx="362" cy="276" r="15"/>
    <circle cx="1213" cy="312" r="19"/>
    <circle cx="1326" cy="662" r="12"/>
    <circle cx="621" cy="742" r="10"/>
  </g>
</svg>
